<?xml version="1.0" encoding="UTF-8"?>
<svg id="Livello_1" data-name="Livello 1" xmlns="http://www.w3.org/2000/svg" viewBox="0 0 800 800">
  <defs>
    <style>
      .cls-1 {
        fill: #06065d;
      }

      .cls-2 {
        fill: #fff;
      }
    </style>
  </defs>
  <rect class="cls-2" x="0" width="800" height="800"/>
  <g>
    <path class="cls-1" d="M281.1,415.47c0,27.46-17.9,54.92-54.06,54.92s-54.06-27.46-54.06-54.92,18.08-55.27,54.06-55.27,54.06,27.64,54.06,55.27ZM200.8,415.3c0,15.12,8.69,30.07,26.25,30.07s26.25-14.95,26.25-30.07-8.69-30.07-26.25-30.07-26.25,15.12-26.25,30.07Z"/>
    <path class="cls-1" d="M346.18,470.39c-36.15,0-54.06-27.46-54.06-54.92s18.08-55.27,54.06-55.27c24.68,0,40.85,13.04,48.67,30.07l-26.07,8.86c-4.17-8-11.65-13.9-22.6-13.9-17.55,0-26.25,15.12-26.25,30.07s8.69,30.07,26.25,30.07c10.95,0,18.6-5.91,22.6-14.08l26.25,8.86c-7.65,17.21-23.99,30.24-48.84,30.24Z"/>
    <path class="cls-1" d="M455.5,470.39c-36.15,0-54.06-27.46-54.06-54.92s18.08-55.27,54.06-55.27,52.32,27.46,52.32,54.92c0,3.48-.17,7.13-.87,10.6h-76.3c3.13,10.95,11.47,19.64,24.85,19.64,10.95,0,18.6-5.91,22.6-14.08l26.25,8.86c-7.65,17.21-23.99,30.24-48.84,30.24ZM478.79,400.7c-3.82-8.86-11.64-15.47-23.29-15.47s-19.47,6.6-23.29,15.47h46.58Z"/>
    <path class="cls-1" d="M547.93,329.61v43.8c7.3-8,17.38-13.21,30.94-13.21,31.29,0,49.36,27.64,49.36,55.27s-17.9,54.92-49.36,54.92c-13.56,0-23.64-5.04-30.94-13.04v11.3h-26.77v-139.05h26.77ZM574.18,445.36c17.55,0,26.25-14.95,26.25-30.07s-8.69-30.07-26.25-30.07-26.25,15.12-26.25,30.07,8.69,30.07,26.25,30.07Z"/>
    <path class="cls-1" d="M159.57,329.61v139.05h-26.77v-11.3c-7.3,8-17.38,13.04-30.94,13.04-31.46,0-49.36-27.46-49.36-54.92,0-27.64,18.08-55.27,49.36-55.27,13.56,0,23.64,5.21,30.94,13.21v-43.8h26.77ZM132.8,415.3c0-14.95-8.69-30.07-26.25-30.07-17.55,0-26.25,15.12-26.25,30.07,0,15.12,8.69,30.07,26.25,30.07s26.25-14.95,26.25-30.07Z"/>
    <path class="cls-1" d="M747.5,415.47c0,27.46-17.9,54.92-54.06,54.92s-54.06-27.46-54.06-54.92,18.08-55.27,54.06-55.27,54.06,27.64,54.06,55.27ZM667.2,415.3c0,15.12,8.69,30.07,26.25,30.07s26.25-14.95,26.25-30.07-8.69-30.07-26.25-30.07-26.25,15.12-26.25,30.07Z"/>
  </g>
</svg>
