<?xml version="1.0" encoding="UTF-8"?>
<svg id="Livello_1" data-name="Livello 1" xmlns="http://www.w3.org/2000/svg" viewBox="0 0 355 72">
  <path d="M117.54,43.8c0,13.85-9.03,27.7-27.26,27.7s-27.26-13.85-27.26-27.7,9.12-27.87,27.26-27.87,27.26,13.94,27.26,27.87ZM77.04,43.71c0,7.63,4.38,15.16,13.24,15.16s13.24-7.54,13.24-15.16-4.38-15.16-13.24-15.16-13.24,7.63-13.24,15.16Z"/>
  <path d="M150.36,71.5c-18.23,0-27.26-13.85-27.26-27.7s9.12-27.87,27.26-27.87c12.45,0,20.6,6.57,24.54,15.16l-13.15,4.47c-2.1-4.03-5.87-7.01-11.4-7.01-8.85,0-13.24,7.63-13.24,15.16s4.38,15.16,13.24,15.16c5.52,0,9.38-2.98,11.4-7.1l13.24,4.47c-3.86,8.68-12.1,15.25-24.63,15.25Z"/>
  <path d="M205.49,71.5c-18.23,0-27.26-13.85-27.26-27.7s9.12-27.87,27.26-27.87,26.38,13.85,26.38,27.7c0,1.75-.09,3.59-.44,5.35h-38.48c1.58,5.52,5.78,9.9,12.53,9.9,5.52,0,9.38-2.98,11.4-7.1l13.24,4.47c-3.86,8.68-12.1,15.25-24.63,15.25ZM217.23,36.35c-1.93-4.47-5.87-7.8-11.75-7.8s-9.82,3.33-11.75,7.8h23.49Z"/>
  <path d="M252.1.5v22.09c3.68-4.03,8.77-6.66,15.6-6.66,15.78,0,24.89,13.94,24.89,27.87s-9.03,27.7-24.89,27.7c-6.84,0-11.92-2.54-15.6-6.57v5.7h-13.5V.5h13.5ZM265.34,58.88c8.85,0,13.24-7.54,13.24-15.16s-4.38-15.16-13.24-15.16-13.24,7.63-13.24,15.16,4.38,15.16,13.24,15.16Z"/>
  <path d="M56.25.5v70.12h-13.5v-5.7c-3.68,4.03-8.77,6.57-15.6,6.57-15.87,0-24.89-13.85-24.89-27.7,0-13.94,9.12-27.87,24.89-27.87,6.84,0,11.92,2.63,15.6,6.66V.5h13.5ZM42.75,43.71c0-7.54-4.38-15.16-13.24-15.16s-13.24,7.63-13.24,15.16c0,7.63,4.38,15.16,13.24,15.16s13.24-7.54,13.24-15.16Z"/>
  <path d="M352.75,43.8c0,13.85-9.03,27.7-27.26,27.7s-27.26-13.85-27.26-27.7,9.12-27.87,27.26-27.87,27.26,13.94,27.26,27.87ZM312.25,43.71c0,7.63,4.38,15.16,13.24,15.16s13.24-7.54,13.24-15.16-4.38-15.16-13.24-15.16-13.24,7.63-13.24,15.16Z"/>
</svg>
