<?xml version="1.0" encoding="UTF-8"?>
<svg id="Livello_1" data-name="Livello 1" xmlns="http://www.w3.org/2000/svg" viewBox="0 0 110 110">
  <defs>
    <style>
      .cls-1 {
        fill: #06065d;
      }

      .cls-2 {
        fill: #fff;
      }
    </style>
  </defs>
  <rect class="cls-2" x="0" y="0" width="110" height="110"/>
  <g>
    <path class="cls-1" d="M38.23,57.06c0,3.87-2.52,7.74-7.62,7.74s-7.62-3.87-7.62-7.74,2.55-7.79,7.62-7.79,7.62,3.9,7.62,7.79ZM26.91,57.04c0,2.13,1.23,4.24,3.7,4.24s3.7-2.11,3.7-4.24-1.23-4.24-3.7-4.24-3.7,2.13-3.7,4.24Z"/>
    <path class="cls-1" d="M47.41,64.81c-5.1,0-7.62-3.87-7.62-7.74s2.55-7.79,7.62-7.79c3.48,0,5.76,1.84,6.86,4.24l-3.68,1.25c-.59-1.13-1.64-1.96-3.19-1.96-2.48,0-3.7,2.13-3.7,4.24s1.23,4.24,3.7,4.24c1.54,0,2.62-.83,3.19-1.99l3.7,1.25c-1.08,2.43-3.38,4.26-6.89,4.26Z"/>
    <path class="cls-1" d="M62.83,64.81c-5.1,0-7.62-3.87-7.62-7.74s2.55-7.79,7.62-7.79,7.38,3.87,7.38,7.74c0,.49-.02,1-.12,1.5h-10.76c.44,1.54,1.62,2.77,3.5,2.77,1.54,0,2.62-.83,3.19-1.99l3.7,1.25c-1.08,2.43-3.38,4.26-6.89,4.26ZM66.11,54.98c-.54-1.25-1.64-2.18-3.28-2.18s-2.74.93-3.28,2.18h6.57Z"/>
    <path class="cls-1" d="M75.86,44.96v6.18c1.03-1.13,2.45-1.86,4.36-1.86,4.41,0,6.96,3.9,6.96,7.79s-2.52,7.74-6.96,7.74c-1.91,0-3.33-.71-4.36-1.84v1.59h-3.77v-19.61h3.77ZM79.56,61.28c2.48,0,3.7-2.11,3.7-4.24s-1.23-4.24-3.7-4.24-3.7,2.13-3.7,4.24,1.23,4.24,3.7,4.24Z"/>
    <path class="cls-1" d="M21.1,44.96v19.61h-3.77v-1.59c-1.03,1.13-2.45,1.84-4.36,1.84-4.44,0-6.96-3.87-6.96-7.74s2.55-7.79,6.96-7.79c1.91,0,3.33.74,4.36,1.86v-6.18h3.77ZM17.32,57.04c0-2.11-1.23-4.24-3.7-4.24s-3.7,2.13-3.7,4.24,1.23,4.24,3.7,4.24,3.7-2.11,3.7-4.24Z"/>
    <path class="cls-1" d="M104,57.06c0,3.87-2.52,7.74-7.62,7.74s-7.62-3.87-7.62-7.74,2.55-7.79,7.62-7.79,7.62,3.9,7.62,7.79ZM92.68,57.04c0,2.13,1.23,4.24,3.7,4.24s3.7-2.11,3.7-4.24-1.23-4.24-3.7-4.24-3.7,2.13-3.7,4.24Z"/>
  </g>
</svg>
