<?xml version="1.0" encoding="UTF-8"?>
<svg id="Livello_1" data-name="Livello 1" xmlns="http://www.w3.org/2000/svg" viewBox="0 0 300 300">
  <defs>
    <style>
      .cls-1 {
        fill: #06065d;
      }

      .cls-2 {
        fill: #fff;
      }
    </style>
  </defs>
  <rect class="cls-2" width="300" height="300"/>
  <g>
    <path class="cls-1" d="M105.52,155.79c0,10.27-6.7,20.55-20.22,20.55s-20.22-10.27-20.22-20.55,6.76-20.68,20.22-20.68,20.22,10.34,20.22,20.68ZM75.48,155.72c0,5.66,3.25,11.25,9.82,11.25s9.82-5.59,9.82-11.25-3.25-11.25-9.82-11.25-9.82,5.66-9.82,11.25Z"/>
    <path class="cls-1" d="M129.87,176.33c-13.52,0-20.22-10.27-20.22-20.55s6.76-20.68,20.22-20.68c9.23,0,15.28,4.88,18.21,11.25l-9.75,3.32c-1.56-2.99-4.36-5.2-8.45-5.2-6.57,0-9.82,5.66-9.82,11.25s3.25,11.25,9.82,11.25c4.1,0,6.96-2.21,8.45-5.27l9.82,3.32c-2.86,6.44-8.97,11.31-18.27,11.31Z"/>
    <path class="cls-1" d="M170.76,176.33c-13.52,0-20.22-10.27-20.22-20.55s6.76-20.68,20.22-20.68,19.57,10.27,19.57,20.55c0,1.3-.07,2.67-.33,3.97h-28.54c1.17,4.1,4.29,7.35,9.3,7.35,4.1,0,6.96-2.21,8.45-5.27l9.82,3.32c-2.86,6.44-8.97,11.31-18.27,11.31ZM179.48,150.26c-1.43-3.32-4.36-5.79-8.71-5.79s-7.28,2.47-8.71,5.79h17.43Z"/>
    <path class="cls-1" d="M205.34,123.67v16.39c2.73-2.99,6.5-4.94,11.57-4.94,11.7,0,18.47,10.34,18.47,20.68s-6.7,20.55-18.47,20.55c-5.07,0-8.84-1.89-11.57-4.88v4.23h-10.01v-52.02h10.01ZM215.16,166.97c6.57,0,9.82-5.59,9.82-11.25s-3.25-11.25-9.82-11.25-9.82,5.66-9.82,11.25,3.25,11.25,9.82,11.25Z"/>
    <path class="cls-1" d="M60.05,123.67v52.02h-10.01v-4.23c-2.73,2.99-6.5,4.88-11.57,4.88-11.77,0-18.47-10.27-18.47-20.55,0-10.34,6.76-20.68,18.47-20.68,5.07,0,8.84,1.95,11.57,4.94v-16.39h10.01ZM50.04,155.72c0-5.59-3.25-11.25-9.82-11.25-6.57,0-9.82,5.66-9.82,11.25s3.25,11.25,9.82,11.25c6.57,0,9.82-5.59,9.82-11.25Z"/>
    <path class="cls-1" d="M280,155.79c0,10.27-6.7,20.55-20.22,20.55s-20.22-10.27-20.22-20.55,6.76-20.68,20.22-20.68,20.22,10.34,20.22,20.68ZM249.96,155.72c0,5.66,3.25,11.25,9.82,11.25s9.82-5.59,9.82-11.25-3.25-11.25-9.82-11.25-9.82,5.66-9.82,11.25Z"/>
  </g>
</svg>
